<?xml version="1.0" standalone="no"?>
<!DOCTYPE svg PUBLIC "-//W3C//DTD SVG 20010904//EN"
 "http://www.w3.org/TR/2001/REC-SVG-20010904/DTD/svg10.dtd">
<svg version="1.0" xmlns="http://www.w3.org/2000/svg"
 width="91.000000pt" height="91.000000pt" viewBox="0 0 91.000000 91.000000"
 preserveAspectRatio="xMidYMid meet">
<metadata>
Created by potrace 1.11, written by Peter Selinger 2001-2013
</metadata>
<g transform="translate(0.000000,91.000000) scale(0.100000,-0.100000)"
fill="#000000" stroke="none">
<path d="M350 888 c-19 -9 -43 -17 -52 -18 -10 0 -18 -4 -18 -9 0 -5 -9 -13
-21 -16 -33 -11 -137 -122 -164 -176 -14 -27 -22 -49 -19 -49 4 0 1 -7 -6 -15
-7 -8 -9 -15 -5 -15 4 0 3 -6 -2 -12 -13 -17 -14 -76 -2 -84 5 -3 7 -9 5 -13
-6 -9 52 -126 79 -161 11 -14 46 -51 78 -82 67 -67 126 -97 207 -107 4 -1 11
-16 18 -34 16 -45 65 -89 102 -94 16 -1 30 1 30 7 0 5 7 7 15 4 8 -4 15 -1 15
6 0 6 6 10 12 8 15 -5 13 -6 103 73 67 58 126 142 121 171 -3 22 -27 61 -53
89 -18 20 -22 33 -17 53 3 14 10 26 15 26 4 0 11 17 15 38 4 20 9 41 12 46 9
16 7 96 -2 96 -5 0 -7 3 -3 6 7 7 -26 75 -51 105 -29 34 -79 60 -124 64 -31 2
-52 11 -74 31 -33 31 -78 56 -126 69 -5 2 -9 3 -10 5 -11 8 -49 3 -78 -12z"/>
</g>
</svg>
